<svg width="177" height="64" viewBox="0 0 177 64" fill="none" xmlns="http://www.w3.org/2000/svg">
<rect x="0.25" y="8.25" width="47.5" height="47.5" fill="url(#paint0_linear_1015_81)" stroke="black" stroke-width="0.5"/>
<path d="M20.1936 43.716V28.764L18.4296 28.904L15.6296 27.504V22.8L29.5736 21.568L32.3736 22.968V27.672L27.8096 28.064V44.64L22.9936 45.088L20.1936 43.716ZM29.2936 26.02V21.876L15.9096 23.052V27.196L20.4736 26.804V43.408L24.7296 43.044V26.412L29.2936 26.02Z" fill="black"/>
<path d="M59.0781 25.6L59.4301 21.92H74.6301L74.2781 25.6L68.7101 25.12L68.5821 35.68L68.9661 44H64.4861L64.8701 36.224L64.7421 25.152L59.0781 25.6ZM85.8406 35.904C85.8406 34.432 85.7126 33.4507 85.4566 32.96C85.2006 32.4693 84.6033 32.224 83.6646 32.224C82.726 32.224 81.6593 32.5973 80.4646 33.344V35.68L80.8166 43.2L76.4966 44L76.8806 36.224L76.4966 20.032L80.8806 19.232L80.4646 27.52V31.264C80.7846 30.8373 81.1473 30.4213 81.5526 30.016C81.958 29.6107 82.5873 29.152 83.4406 28.64C84.294 28.128 85.2006 27.872 86.1606 27.872C87.142 27.872 87.9633 28.256 88.6246 29.024C89.286 29.7707 89.6166 30.7947 89.6166 32.096L89.4246 35.68L89.7766 43.36L85.4566 44.16L85.8406 35.904ZM99.0691 40.736C99.6878 40.736 100.338 40.576 101.021 40.256C101.704 39.936 102.237 39.616 102.621 39.296L103.197 38.816L104.669 40.608C104.456 40.9707 104.125 41.3867 103.677 41.856C103.229 42.3253 102.77 42.7307 102.301 43.072C101.853 43.392 101.245 43.6907 100.477 43.968C99.7305 44.224 98.9518 44.352 98.1411 44.352C96.4131 44.352 95.0051 43.7013 93.9171 42.4C92.8291 41.0773 92.2851 39.3813 92.2851 37.312C92.2851 34.7093 93.0425 32.4267 94.5571 30.464C96.0718 28.5013 97.8425 27.52 99.8691 27.52C101.426 27.52 102.632 27.9573 103.485 28.832C104.36 29.7067 104.797 30.9333 104.797 32.512C104.797 33.4507 104.637 34.5173 104.317 35.712L103.677 36.384L95.6771 37.12C96.0398 39.5307 97.1705 40.736 99.0691 40.736ZM99.0691 30.816C98.1305 30.816 97.3411 31.2 96.7011 31.968C96.0611 32.7147 95.6878 33.6747 95.5811 34.848L101.021 34.176C101.085 33.6853 101.117 33.28 101.117 32.96C101.117 31.5307 100.434 30.816 99.0691 30.816ZM116.87 35.904C116.87 34.432 116.742 33.4507 116.486 32.96C116.23 32.4693 115.633 32.224 114.694 32.224C113.756 32.224 112.689 32.5973 111.494 33.344V35.68L111.846 43.2L107.558 44L107.942 36.224C107.857 33.3653 107.622 30.8053 107.238 28.544L111.11 27.712C111.26 28.9493 111.366 30.1547 111.43 31.328C111.75 30.9013 112.113 30.4853 112.518 30.08C112.924 29.6533 113.564 29.184 114.438 28.672C115.313 28.1387 116.198 27.872 117.094 27.872C117.99 27.872 118.748 28.16 119.366 28.736C119.985 29.312 120.38 30.1013 120.55 31.104C122.321 28.9493 124.113 27.872 125.926 27.872C127.057 27.872 127.953 28.256 128.614 29.024C129.276 29.7707 129.606 30.7947 129.606 32.096L129.414 35.68L129.766 43.36L125.446 44.16L125.83 35.904C125.83 34.432 125.702 33.4507 125.446 32.96C125.19 32.4693 124.604 32.224 123.686 32.224C122.769 32.224 121.734 32.576 120.582 33.28L120.454 35.68L120.806 43.36L116.486 44.16L116.87 35.904ZM139.038 40.736C139.657 40.736 140.307 40.576 140.99 40.256C141.673 39.936 142.206 39.616 142.59 39.296L143.166 38.816L144.638 40.608C144.425 40.9707 144.094 41.3867 143.646 41.856C143.198 42.3253 142.739 42.7307 142.27 43.072C141.822 43.392 141.214 43.6907 140.446 43.968C139.699 44.224 138.921 44.352 138.11 44.352C136.382 44.352 134.974 43.7013 133.886 42.4C132.798 41.0773 132.254 39.3813 132.254 37.312C132.254 34.7093 133.011 32.4267 134.526 30.464C136.041 28.5013 137.811 27.52 139.838 27.52C141.395 27.52 142.601 27.9573 143.454 28.832C144.329 29.7067 144.766 30.9333 144.766 32.512C144.766 33.4507 144.606 34.5173 144.286 35.712L143.646 36.384L135.646 37.12C136.009 39.5307 137.139 40.736 139.038 40.736ZM139.038 30.816C138.099 30.816 137.31 31.2 136.67 31.968C136.03 32.7147 135.657 33.6747 135.55 34.848L140.99 34.176C141.054 33.6853 141.086 33.28 141.086 32.96C141.086 31.5307 140.403 30.816 139.038 30.816ZM161.191 44.16L159.623 37.92H151.975L150.279 44L146.183 43.68L148.999 35.904L153.287 22.144L159.015 21.728L163.143 35.424L165.799 43.456L161.191 44.16ZM156.135 25.888H155.719L152.967 34.528H158.663L156.135 25.888ZM173.37 21.76L172.922 35.68L173.306 44H168.826L169.21 36.224L168.826 22.56L173.37 21.76Z" fill="black"/>
<defs>
<linearGradient id="paint0_linear_1015_81" x1="24" y1="8" x2="24" y2="56" gradientUnits="userSpaceOnUse">
<stop stop-color="white"/>
<stop offset="1" stop-color="#73FBC1"/>
</linearGradient>
</defs>
</svg>
