<svg width="205" height="64" viewBox="0 0 205 64" fill="none" xmlns="http://www.w3.org/2000/svg">
<rect x="0.25" y="8.25" width="47.5" height="47.5" fill="url(#paint0_linear_1015_81)" stroke="black" stroke-width="0.5"/>
<path d="M20.1936 43.716V28.764L18.4296 28.904L15.6296 27.504V22.8L29.5736 21.568L32.3736 22.968V27.672L27.8096 28.064V44.64L22.9936 45.088L20.1936 43.716ZM29.2936 26.02V21.876L15.9096 23.052V27.196L20.4736 26.804V43.408L24.7296 43.044V26.412L29.2936 26.02Z" fill="black"/>
<path d="M73.8755 20.392V22.504H67.3475L67.8595 21.96V45H65.4275V21.96L65.9395 22.504H59.4755V20.392H73.8755ZM87.0255 44.968V32.776C87.0255 31.3253 86.7162 30.2373 86.0975 29.512C85.4788 28.7653 84.6468 28.392 83.6015 28.392C82.8335 28.392 82.1082 28.6267 81.4255 29.096C80.7428 29.544 80.1882 30.2373 79.7615 31.176C79.3348 32.0933 79.1215 33.256 79.1215 34.664V45H76.7535V18.6H79.1215L79.0895 31.72H78.2575C78.7268 29.9493 79.4948 28.6267 80.5615 27.752C81.6282 26.8773 82.8122 26.44 84.1135 26.44C85.2015 26.44 86.1402 26.6747 86.9295 27.144C87.7188 27.6133 88.3268 28.3067 88.7535 29.224C89.1802 30.12 89.3935 31.24 89.3935 32.584V44.968H87.0255ZM101.404 45.352C99.8469 45.352 98.4816 44.9893 97.3083 44.264C96.1349 43.5173 95.2176 42.44 94.5563 41.032C93.9163 39.6027 93.5963 37.864 93.5963 35.816C93.5963 33.9173 93.8949 32.2747 94.4923 30.888C95.0896 29.48 95.9323 28.392 97.0203 27.624C98.1083 26.8347 99.3669 26.44 100.796 26.44C102.375 26.44 103.644 26.8133 104.604 27.56C105.586 28.3067 106.29 29.352 106.716 30.696C107.143 32.0187 107.356 33.5653 107.356 35.336V36.232H94.9083L94.9403 34.376L104.956 34.312C104.956 33.5653 104.882 32.84 104.732 32.136C104.604 31.432 104.37 30.8027 104.028 30.248C103.708 29.672 103.282 29.224 102.748 28.904C102.236 28.5627 101.575 28.392 100.764 28.392C99.2923 28.392 98.1403 29.0747 97.3083 30.44C96.4763 31.784 96.0603 33.608 96.0603 35.912C96.0603 38.3227 96.5723 40.168 97.5963 41.448C98.6416 42.7067 100.007 43.336 101.692 43.336C102.46 43.336 103.207 43.24 103.932 43.048C104.679 42.8347 105.458 42.5253 106.268 42.12L106.972 43.816C106.034 44.328 105.084 44.712 104.124 44.968C103.186 45.224 102.279 45.352 101.404 45.352ZM133.559 45H131.223V32.808C131.223 31.336 130.914 30.2267 130.295 29.48C129.698 28.7333 128.93 28.36 127.991 28.36C127.244 28.36 126.54 28.5947 125.879 29.064C125.239 29.5333 124.716 30.248 124.311 31.208C123.906 32.1467 123.703 33.32 123.703 34.728V45H121.303V32.808C121.303 31.336 121.004 30.2267 120.407 29.48C119.81 28.7333 118.999 28.36 117.975 28.36C117.207 28.36 116.482 28.5947 115.799 29.064C115.138 29.5333 114.594 30.248 114.167 31.208C113.74 32.1467 113.527 33.32 113.527 34.728V45H111.159V26.792H113.399L113.495 31.688H112.695C112.994 30.5147 113.431 29.544 114.007 28.776C114.604 28.008 115.287 27.432 116.055 27.048C116.823 26.6427 117.623 26.44 118.455 26.44C119.436 26.44 120.29 26.664 121.015 27.112C121.762 27.5387 122.359 28.1573 122.807 28.968C123.276 29.7787 123.554 30.7493 123.639 31.88H122.807C123.127 30.6427 123.564 29.6293 124.119 28.84C124.695 28.0293 125.356 27.432 126.103 27.048C126.871 26.6427 127.66 26.44 128.471 26.44C129.495 26.44 130.391 26.6747 131.159 27.144C131.927 27.6133 132.514 28.296 132.919 29.192C133.346 30.088 133.559 31.1973 133.559 32.52V45ZM145.623 45.352C144.066 45.352 142.7 44.9893 141.527 44.264C140.354 43.5173 139.436 42.44 138.775 41.032C138.135 39.6027 137.815 37.864 137.815 35.816C137.815 33.9173 138.114 32.2747 138.711 30.888C139.308 29.48 140.151 28.392 141.239 27.624C142.327 26.8347 143.586 26.44 145.015 26.44C146.594 26.44 147.863 26.8133 148.823 27.56C149.804 28.3067 150.508 29.352 150.935 30.696C151.362 32.0187 151.575 33.5653 151.575 35.336V36.232H139.127L139.159 34.376L149.175 34.312C149.175 33.5653 149.1 32.84 148.951 32.136C148.823 31.432 148.588 30.8027 148.247 30.248C147.927 29.672 147.5 29.224 146.967 28.904C146.455 28.5627 145.794 28.392 144.983 28.392C143.511 28.392 142.359 29.0747 141.527 30.44C140.695 31.784 140.279 33.608 140.279 35.912C140.279 38.3227 140.791 40.168 141.815 41.448C142.86 42.7067 144.226 43.336 145.911 43.336C146.679 43.336 147.426 43.24 148.151 43.048C148.898 42.8347 149.676 42.5253 150.487 42.12L151.191 43.816C150.252 44.328 149.303 44.712 148.343 44.968C147.404 45.224 146.498 45.352 145.623 45.352ZM168.914 43.272V34.728L169.426 35.24H163.378V33.16H171.346V43.272C169.959 43.9973 168.615 44.5307 167.314 44.872C166.012 45.192 164.828 45.352 163.762 45.352C161.799 45.352 160.071 44.872 158.578 43.912C157.106 42.9307 155.964 41.5013 155.154 39.624C154.364 37.7467 153.97 35.464 153.97 32.776C153.97 30.0667 154.396 27.7733 155.25 25.896C156.103 24.0187 157.266 22.5787 158.738 21.576C160.21 20.5733 161.863 20.072 163.698 20.072C165.404 20.072 166.93 20.5307 168.274 21.448C169.618 22.344 170.652 23.72 171.378 25.576L169.042 26.344C168.444 24.9147 167.687 23.88 166.77 23.24C165.852 22.6 164.807 22.28 163.634 22.28C162.204 22.28 160.956 22.7067 159.89 23.56C158.844 24.392 158.034 25.5973 157.458 27.176C156.882 28.7333 156.594 30.6 156.594 32.776C156.594 35.016 156.892 36.9147 157.49 38.472C158.108 40.008 158.972 41.1813 160.082 41.992C161.212 42.7813 162.535 43.176 164.05 43.176C164.988 43.176 165.959 43.016 166.962 42.696C167.964 42.376 169.052 41.9067 170.226 41.288L168.914 43.272ZM176.131 45V20.424C177.027 20.3813 177.944 20.36 178.883 20.36C179.821 20.3387 180.813 20.328 181.859 20.328C183.843 20.328 185.443 20.616 186.659 21.192C187.875 21.768 188.76 22.5787 189.315 23.624C189.869 24.648 190.147 25.8213 190.147 27.144C190.147 28.5733 189.837 29.864 189.219 31.016C188.6 32.1467 187.693 33.0533 186.499 33.736C185.325 34.4187 183.864 34.76 182.115 34.76H177.283V32.648H181.475C183.587 32.648 185.133 32.1893 186.115 31.272C187.096 30.3333 187.587 29.096 187.587 27.56C187.587 25.9387 187.149 24.68 186.275 23.784C185.4 22.8667 183.875 22.408 181.699 22.408C181.123 22.408 180.504 22.4187 179.843 22.44C179.181 22.4613 178.573 22.4933 178.019 22.536L178.563 21.992V45H176.131ZM204.501 20.392V22.504H197.973L198.485 21.96V45H196.053V21.96L196.565 22.504H190.101V20.392H204.501Z" fill="black"/>
<defs>
<linearGradient id="paint0_linear_1015_81" x1="24" y1="8" x2="24" y2="56" gradientUnits="userSpaceOnUse">
<stop stop-color="white"/>
<stop offset="1" stop-color="#73FBC1"/>
</linearGradient>
</defs>
</svg>
