<svg xmlns="http://www.w3.org/2000/svg" version="1.1" xmlns:xlink="http://www.w3.org/1999/xlink" xmlns:svgjs="http://svgjs.dev/svgjs" width="1000" height="378" viewBox="0 0 1000 378"><g transform="matrix(1,0,0,1,-0.6056348047761162,-0.5261195973832571)"><svg viewBox="0 0 396 150" data-background-color="#ffffff" preserveAspectRatio="xMidYMid meet" height="378" width="1000" xmlns="http://www.w3.org/2000/svg" xmlns:xlink="http://www.w3.org/1999/xlink"><g id="tight-bounds" transform="matrix(1,0,0,1,0.24008861730862918,0.20883310357287144)"><svg viewBox="0 0 395.52 149.58238927841788" height="149.58238927841788" width="395.52"><g><svg viewBox="0 0 395.52 149.58238927841788" height="149.58238927841788" width="395.52"><g><svg viewBox="0 0 395.52 149.58238927841788" height="149.58238927841788" width="395.52"><g id="textblocktransform"><svg viewBox="0 0 395.52 149.58238927841788" height="149.58238927841788" width="395.52" id="textblock"><g><svg viewBox="0 0 395.52 149.58238927841788" height="149.58238927841788" width="395.52"><path d="M394.594 32.083C392.735 16.556 387.435 12.24 387.435 12.24 371.165-3.753 350.86-0.306 332.619 1.992 300.414 2.085 268.339 5.501 236.208 7.333 168.767 7.613 100.749 3.017 33.643 14.351 27.339 17.829-6.54 15.034 1.121 34.07 3.129 41.989 10.456 50.777 10.232 58.043 11.236 59.316 12.631 56.397 13.226 58.229 15.309 63.167 18.711 60.838 21.501 63.757 17.614 71.551 20.403 78.041 23.062 84.842 18.377 86.612 12.371 85.774 9.675 91.643 9.396 95.897 7.89 95.09 6.235 94.903 5.026 94.779 2.59 95.245 2.999 96.58 4.394 101.145-1.594 103.784 2.162 108.256-0.422 113.1 3.948 117.293 3.353 122.541 3.278 123.596 3.687 124.497 4.338 124.745 7.22 126.081 3.018 128.689 3.464 131.515 33.029 150.83 65.104 137.477 95.394 146.358 103.259 140.148 97.346 148.563 100.489 147.259 102.943 145.737 104.728 152.041 107.499 148.47 107.927 147.445 107.276 145.023 108.8 145.489 109.6 145.737 110.307 145.675 110.418 144.247 110.586 142.104 109.117 143.439 108.726 142.321 112.947 136.67 111.906 150.116 115.866 149.557 115.68 147.911 114.528 145.551 116.889 145.861 119.232 143.501 119.306 141.545 121.389 146.855 121.463 148.004 121.835 148.812 122.43 149.37 128.938 143.595 135.409 151.42 142.233 148.812 146.417 145.955 150.433 150.364 154.672 149.277 156.16 148.408 157.666 146.855 159.098 149.464 176.632 150.023 195.319 147.694 211.943 149.557 256.364 146.079 303.836 150.985 350.674 146.389 361.719 144.619 373.192 142.104 383.958 140.086 383.958 140.086 392.679 134.558 392.679 109.716S394.538 87.978 394.817 68.197C395.096 48.417 396.398 47.609 394.538 32.083Z" opacity="1" fill="#23344a" data-fill-palette-color="tertiary"></path><g transform="matrix(1,0,0,1,55.76832,26.230666666666668)"><svg width="283.98335999999995" viewBox="1 -47 206.38 69.75" height="97.12105594508455" data-palette-color="#ffffff"><path d="M43.4-32Q43.4-27.75 40.4-24.68 37.4-21.6 31.65-20.25L31.65-20.25Q34.75-19.4 36.35-17.48 37.95-15.55 37.95-13.05L37.95-13.05Q37.95-9.1 35.48-6.2 33-3.3 28.25-1.73 23.5-0.15 16.8-0.15L16.8-0.15Q14.3-0.15 12.8-0.3L12.8-0.3Q12.75 1.1 11.6 1.8 10.45 2.5 8.65 2.5L8.65 2.5Q6.85 2.5 6.18 1.7 5.5 0.9 5.6-0.65L5.6-0.65Q6.05-7.65 7.35-15.33 8.65-23 10.65-30.15L10.65-30.15Q11-31.4 12.05-31.9 13.1-32.4 14.8-32.4L14.8-32.4Q17.85-32.4 17.85-30.7L17.85-30.7Q17.85-30 17.55-29.1L17.55-29.1Q16.25-25.2 14.95-18.53 13.65-11.85 13.1-5.8L13.1-5.8Q15.5-5.6 17-5.6L17-5.6Q24-5.6 27.28-7.63 30.55-9.65 30.55-12.8L30.55-12.8Q30.55-15 28.68-16.5 26.8-18 22.4-18.15L22.4-18.15Q21.4-18.2 21-18.65 20.6-19.1 20.6-20.1L20.6-20.1Q20.6-21.55 21.2-22.45 21.8-23.35 23.4-23.4L23.4-23.4Q26.95-23.5 29.83-24.45 32.7-25.4 34.35-27.13 36-28.85 36-31.15L36-31.15Q36-34.05 33.15-35.73 30.3-37.4 24.4-37.4L24.4-37.4Q19.05-37.4 14.05-36.02 9.05-34.65 5.55-32.55L5.55-32.55Q3.95-31.6 2.85-31.6L2.85-31.6Q1.95-31.6 1.48-32.23 1-32.85 1-33.8L1-33.8Q1-35.05 1.53-35.95 2.05-36.85 4.05-38L4.05-38Q8.25-40.4 13.9-41.75 19.55-43.1 25.45-43.1L25.45-43.1Q34.5-43.1 38.95-40.05 43.4-37 43.4-32L43.4-32ZM47.85 0.25Q45.6 0.25 44.17-1.83 42.75-3.9 42.75-7L42.75-7Q42.75-10.75 43.25-13.88 43.75-17 44.9-20.5L44.9-20.5Q45.4-22 46.3-22.65 47.2-23.3 49.15-23.3L49.15-23.3Q50.25-23.3 50.67-22.95 51.1-22.6 51.1-21.9L51.1-21.9Q51.1-21.5 50.55-19.2L50.55-19.2Q50.05-17.35 49.75-15.85L49.75-15.85Q48.75-10.6 48.75-8.85L48.75-8.85Q48.75-7.8 49-7.38 49.25-6.95 49.8-6.95L49.8-6.95Q50.55-6.95 51.67-8.45 52.8-9.95 54.07-13 55.35-16.05 56.55-20.5L56.55-20.5Q56.95-22 57.77-22.65 58.6-23.3 60.25-23.3L60.25-23.3Q61.4-23.3 61.85-23.03 62.3-22.75 62.3-22L62.3-22Q62.3-20.75 61.05-15.15L61.05-15.15Q59.65-8.75 59.65-7.25L59.65-7.25Q59.65-6.3 60.05-5.78 60.45-5.25 61.1-5.25L61.1-5.25Q62.1-5.25 63.47-6.48 64.85-7.7 67.15-10.45L67.15-10.45Q67.75-11.15 68.5-11.15L68.5-11.15Q69.15-11.15 69.52-10.55 69.9-9.95 69.9-8.9L69.9-8.9Q69.9-6.9 68.95-5.8L68.95-5.8Q66.8-3.15 64.32-1.45 61.85 0.25 58.7 0.25L58.7 0.25Q56.3 0.25 55.17-1.6 54.05-3.45 54.05-6.8L54.05-6.8Q53.2-3.4 51.5-1.58 49.8 0.25 47.85 0.25L47.85 0.25ZM88.15-11.15Q88.8-11.15 89.17-10.55 89.55-9.95 89.55-8.9L89.55-8.9Q89.55-6.9 88.6-5.8L88.6-5.8Q86.45-3.15 83.9-1.45 81.35 0.25 78.05 0.25L78.05 0.25Q67.85 0.25 67.85-14.1L67.85-14.1Q67.85-16.3 68-18.55L68-18.55 66.05-18.55Q64.55-18.55 64.02-19.1 63.5-19.65 63.5-20.85L63.5-20.85Q63.5-23.65 65.75-23.65L65.75-23.65 68.6-23.65Q69.45-29.15 71.2-33.7 72.95-38.25 75.42-40.95 77.9-43.65 80.75-43.65L80.75-43.65Q82.85-43.65 84.05-41.8 85.25-39.95 85.25-37.15L85.25-37.15Q85.25-29.4 78.75-23.65L78.75-23.65 84.35-23.65Q85.15-23.65 85.5-23.3 85.85-22.95 85.85-22L85.85-22Q85.85-18.55 80.2-18.55L80.2-18.55 74.1-18.55Q74-16.05 74-14.65L74-14.65Q74-9.45 75.22-7.35 76.45-5.25 79.1-5.25L79.1-5.25Q81.25-5.25 82.9-6.55 84.55-7.85 86.8-10.45L86.8-10.45Q87.4-11.15 88.15-11.15L88.15-11.15ZM79.4-38.85Q78.65-38.85 77.72-36.98 76.8-35.1 75.97-31.78 75.15-28.45 74.6-24.4L74.6-24.4Q77.55-26.95 79.02-30.13 80.5-33.3 80.5-35.9L80.5-35.9Q80.5-38.85 79.4-38.85L79.4-38.85ZM105.79-11.15Q106.44-11.15 106.82-10.55 107.19-9.95 107.19-8.9L107.19-8.9Q107.19-6.9 106.24-5.8L106.24-5.8Q104.09-3.15 101.54-1.45 98.99 0.25 95.69 0.25L95.69 0.25Q85.49 0.25 85.49-14.1L85.49-14.1Q85.49-16.3 85.64-18.55L85.64-18.55 83.69-18.55Q82.19-18.55 81.67-19.1 81.14-19.65 81.14-20.85L81.14-20.85Q81.14-23.65 83.39-23.65L83.39-23.65 86.24-23.65Q87.09-29.15 88.84-33.7 90.59-38.25 93.07-40.95 95.54-43.65 98.39-43.65L98.39-43.65Q100.49-43.65 101.69-41.8 102.89-39.95 102.89-37.15L102.89-37.15Q102.89-29.4 96.39-23.65L96.39-23.65 101.99-23.65Q102.79-23.65 103.14-23.3 103.49-22.95 103.49-22L103.49-22Q103.49-18.55 97.84-18.55L97.84-18.55 91.74-18.55Q91.64-16.05 91.64-14.65L91.64-14.65Q91.64-9.45 92.87-7.35 94.09-5.25 96.74-5.25L96.74-5.25Q98.89-5.25 100.54-6.55 102.19-7.85 104.44-10.45L104.44-10.45Q105.04-11.15 105.79-11.15L105.79-11.15ZM97.04-38.85Q96.29-38.85 95.37-36.98 94.44-35.1 93.62-31.78 92.79-28.45 92.24-24.4L92.24-24.4Q95.19-26.95 96.67-30.13 98.14-33.3 98.14-35.9L98.14-35.9Q98.14-38.85 97.04-38.85L97.04-38.85ZM125.44-11.15Q126.09-11.15 126.47-10.55 126.84-9.95 126.84-8.9L126.84-8.9Q126.84-6.9 125.89-5.8L125.89-5.8Q124.04-3.55 120.67-1.65 117.29 0.25 113.44 0.25L113.44 0.25Q108.19 0.25 105.29-2.6 102.39-5.45 102.39-10.4L102.39-10.4Q102.39-13.85 103.84-16.82 105.29-19.8 107.87-21.55 110.44-23.3 113.69-23.3L113.69-23.3Q116.59-23.3 118.34-21.58 120.09-19.85 120.09-16.9L120.09-16.9Q120.09-13.45 117.62-10.98 115.14-8.5 109.24-7.05L109.24-7.05Q110.49-4.75 113.99-4.75L113.99-4.75Q116.24-4.75 119.12-6.33 121.99-7.9 124.09-10.45L124.09-10.45Q124.69-11.15 125.44-11.15L125.44-11.15ZM112.84-18.4Q110.99-18.4 109.72-16.25 108.44-14.1 108.44-11.05L108.44-11.05 108.44-10.95Q111.39-11.65 113.09-13.05 114.79-14.45 114.79-16.3L114.79-16.3Q114.79-17.25 114.27-17.82 113.74-18.4 112.84-18.4L112.84-18.4ZM126.34 0.25Q124.44 0.25 123.66-1.75 122.89-3.75 122.89-8.15L122.89-8.15Q122.89-14.65 124.74-20.5L124.74-20.5Q125.19-21.95 126.21-22.63 127.24-23.3 129.09-23.3L129.09-23.3Q130.09-23.3 130.49-23.05 130.89-22.8 130.89-22.1L130.89-22.1Q130.89-21.3 130.14-18.5L130.14-18.5Q129.64-16.5 129.34-15 129.04-13.5 128.84-11.3L128.84-11.3Q130.49-15.6 132.54-18.3 134.59-21 136.56-22.15 138.54-23.3 140.19-23.3L140.19-23.3Q143.44-23.3 143.44-20.05L143.44-20.05Q143.44-19.4 142.99-16.9L142.99-16.9Q142.59-14.9 142.59-14.4L142.59-14.4Q142.59-12.65 143.84-12.65L143.84-12.65Q145.24-12.65 147.44-14.85L147.44-14.85Q148.09-15.5 148.79-15.5L148.79-15.5Q149.44-15.5 149.81-14.93 150.19-14.35 150.19-13.4L150.19-13.4Q150.19-11.55 149.19-10.5L149.19-10.5Q147.79-9.05 145.91-8.03 144.04-7 141.94-7L141.94-7Q139.29-7 137.91-8.35 136.54-9.7 136.54-12L136.54-12Q136.54-12.75 136.69-13.5L136.69-13.5Q136.79-14.5 136.79-14.85L136.79-14.85Q136.79-15.65 136.24-15.65L136.24-15.65Q135.49-15.65 134.26-13.98 133.04-12.3 131.84-9.55 130.64-6.8 129.89-3.75L129.89-3.75Q129.34-1.4 128.61-0.58 127.89 0.25 126.34 0.25L126.34 0.25ZM165.49-14Q166.89-14 166.89-11.9L166.89-11.9Q166.89-7.95 160.69-7.95L160.69-7.95Q159.49-7.95 157.24-8.4L157.24-8.4Q157.89-5.3 158.31-1.53 158.74 2.25 158.74 4.7L158.74 4.7Q158.74 10.1 156.99 12.95 155.24 15.8 152.39 15.8L152.39 15.8Q148.79 15.8 147.26 10.7 145.74 5.6 145.74-4.7L145.74-4.7Q145.74-14.3 147.81-24.18 149.89-34.05 153.51-40.53 157.14-47 161.49-47L161.49-47Q163.84-47 165.16-44.9 166.49-42.8 166.49-39.25L166.49-39.25Q166.49-27.5 152.44-13.65L152.44-13.65Q151.94-8.75 151.94-5.05L151.94-5.05Q151.94 0.1 152.29 5.53 152.64 10.95 153.44 10.95L153.44 10.95Q154.94 10.95 154.94 5.75L154.94 5.75Q154.94 1.85 154.41-1.8 153.89-5.45 152.99-9.5L152.99-9.5Q152.94-10.15 153.41-11.15 153.89-12.15 154.59-12.9 155.29-13.65 155.84-13.65L155.84-13.65Q156.84-13.65 158.24-13.55L158.24-13.55Q158.69-13.5 159.29-13.5L159.29-13.5Q161.29-13.5 163.74-13.85L163.74-13.85Q164.14-13.9 164.59-13.95 165.04-14 165.49-14L165.49-14ZM160.44-42.05Q159.54-42.05 158.21-39 156.89-35.95 155.59-30.93 154.29-25.9 153.34-20.3L153.34-20.3Q157.34-24.85 159.49-29.78 161.64-34.7 161.69-39L161.69-39Q161.69-42.05 160.44-42.05L160.44-42.05ZM183.03-11.15Q183.68-11.15 184.06-10.55 184.43-9.95 184.43-8.9L184.43-8.9Q184.43-6.9 183.48-5.8L183.48-5.8Q181.33-3.15 178.81-1.45 176.28 0.25 173.08 0.25L173.08 0.25Q168.68 0.25 166.56-3.75 164.43-7.75 164.43-14.1L164.43-14.1Q164.43-20.2 166.01-28 167.58-35.8 170.66-41.4 173.73-47 177.98-47L177.98-47Q180.38-47 181.76-44.78 183.13-42.55 183.13-38.4L183.13-38.4Q183.13-32.45 179.83-24.6 176.53-16.75 170.88-9.05L170.88-9.05Q171.23-7 172.03-6.13 172.83-5.25 174.13-5.25L174.13-5.25Q176.18-5.25 177.73-6.43 179.28-7.6 181.68-10.45L181.68-10.45Q182.28-11.15 183.03-11.15L183.03-11.15ZM176.88-42.05Q175.73-42.05 174.28-37.9 172.83-33.75 171.73-27.6 170.63-21.45 170.53-15.8L170.53-15.8Q174.08-21.65 176.18-27.53 178.28-33.4 178.28-38.25L178.28-38.25Q178.28-42.05 176.88-42.05L176.88-42.05ZM205.98-11.05Q206.63-11.05 207.01-10.43 207.38-9.8 207.38-8.85L207.38-8.85Q207.38-7.7 207.03-7.05 206.68-6.4 205.93-5.9L205.93-5.9 196.33 0.55Q194.43 10.9 191.36 16.82 188.28 22.75 183.53 22.75L183.53 22.75Q180.98 22.75 179.38 21.18 177.78 19.6 177.78 17.05L177.78 17.05Q177.78 14.7 178.86 12.25 179.93 9.8 182.86 6.63 185.78 3.45 191.13-0.65L191.13-0.65 191.28-1.8Q191.63-3.65 192.08-7.1L192.08-7.1Q191.08-3.5 189.28-1.63 187.48 0.25 185.48 0.25L185.48 0.25Q183.23 0.25 181.81-1.83 180.38-3.9 180.38-7L180.38-7Q180.38-10.75 180.88-13.88 181.38-17 182.53-20.5L182.53-20.5Q183.03-22 183.93-22.65 184.83-23.3 186.78-23.3L186.78-23.3Q187.88-23.3 188.31-22.95 188.73-22.6 188.73-21.9L188.73-21.9Q188.73-21.5 188.18-19.2L188.18-19.2Q187.68-17.35 187.38-15.85L187.38-15.85Q186.98-13.8 186.68-11.93 186.38-10.05 186.38-8.85L186.38-8.85Q186.38-6.95 187.43-6.95L187.43-6.95Q188.18-6.95 189.31-8.45 190.43-9.95 191.71-13 192.98-16.05 194.18-20.5L194.18-20.5Q194.58-22 195.41-22.65 196.23-23.3 197.88-23.3L197.88-23.3Q199.03-23.3 199.48-23 199.93-22.7 199.93-22L199.93-22Q199.93-20.75 198.63-13.4L198.63-13.4 197.33-5.35Q201.18-8.25 204.83-10.65L204.83-10.65Q205.48-11.05 205.98-11.05L205.98-11.05ZM184.08 17.9Q185.33 17.9 186.88 15 188.43 12.1 189.98 5.35L189.98 5.35Q186.13 8.6 184.41 11.28 182.68 13.95 182.68 15.95L182.68 15.95Q182.68 16.8 183.01 17.35 183.33 17.9 184.08 17.9L184.08 17.9Z" opacity="1" transform="matrix(1,0,0,1,0,0)" fill="#ffffff" class="wordmark-text-0" data-fill-palette-color="quaternary" id="text-0"></path></svg></g></svg></g></svg></g></svg></g><g></g></svg></g><defs></defs></svg><rect width="395.52" height="149.58238927841788" fill="none" stroke="none" visibility="hidden"></rect></g></svg></g></svg>