<svg width="160" height="160" viewBox="0 0 160 160" fill="none" xmlns="http://www.w3.org/2000/svg">
<circle cx="80" cy="80" r="80" fill="url(#paint0_linear_1_277)"/>
<g filter="url(#filter0_i_1_277)">
<circle cx="80" cy="80" r="52" fill="url(#paint1_radial_1_277)"/>
<circle cx="80" cy="80" r="52" fill="url(#paint2_radial_1_277)" fill-opacity="0.29"/>
<circle cx="80" cy="80" r="52" fill="url(#paint3_linear_1_277)" fill-opacity="0.2" style="mix-blend-mode:multiply"/>
</g>
<circle cx="80" cy="80" r="57" stroke="url(#paint4_linear_1_277)" stroke-width="10"/>
<g style="mix-blend-mode:overlay" opacity="0.25">
<circle cx="80" cy="80" r="62.5" stroke="white"/>
</g>
<mask id="mask0_1_277" style="mask-type:alpha" maskUnits="userSpaceOnUse" x="28" y="28" width="104" height="104">
<circle cx="80" cy="80" r="52" fill="#D9D9D9"/>
</mask>
<g mask="url(#mask0_1_277)">
<g filter="url(#filter1_di_1_277)">
<path d="M100.481 52.3256C101.709 51.3799 103.239 50.9134 104.786 51.0133C106.332 51.1131 107.79 51.7724 108.886 52.8681C109.982 53.9638 110.642 55.421 110.742 56.9676C110.843 58.5142 110.377 60.0444 109.432 61.2727L95.68 79.2557C91.809 84.3173 86.8733 88.4666 81.2219 91.4105C80.5231 88.8018 79.1499 86.4232 77.2403 84.5136C75.3307 82.6039 72.952 81.2307 70.3434 80.5319C73.2877 74.8819 77.437 69.9474 82.4981 66.0773L100.481 52.3256ZM66.3817 85.1352C63.6666 85.1352 61.0628 86.2137 59.143 88.1335C57.2232 90.0533 56.1447 92.6572 56.1447 95.3722C56.1452 95.6621 56.0719 95.9474 55.9316 96.2012C55.7913 96.4549 55.5886 96.6687 55.3428 96.8224C55.0969 96.9761 54.8159 97.0646 54.5263 97.0795C54.2368 97.0944 53.9482 97.0353 53.6878 96.9077C53.2291 96.6824 52.7135 96.5995 52.2073 96.6698C51.7012 96.74 51.2276 96.9602 50.8477 97.302C50.4678 97.6437 50.1989 98.0914 50.0756 98.5873C49.9523 99.0833 49.9803 99.6047 50.156 100.085C51.2639 103.09 53.3931 105.61 56.1712 107.204C58.9492 108.798 62.1993 109.364 65.3528 108.804C68.5064 108.244 71.3627 106.594 73.4221 104.141C75.4816 101.688 76.6131 98.5887 76.6187 95.3858V95.3722C76.6153 93.4703 76.084 91.6067 75.0839 89.989C74.0837 88.3713 72.6541 87.0631 70.9542 86.2101C69.5344 85.501 67.9687 85.133 66.3817 85.1352Z" fill="url(#paint5_radial_1_277)" shape-rendering="crispEdges"/>
<path d="M56.1447 95.3722C56.1447 92.6572 57.2232 90.0533 59.143 88.1335C61.0628 86.2137 63.6666 85.1352 66.3817 85.1352C67.9687 85.133 69.5344 85.501 70.9542 86.2101L56.1447 95.3722ZM56.1447 95.3722C56.1452 95.6621 56.0719 95.9474 55.9316 96.2012M56.1447 95.3722L55.9316 96.2012M55.9316 96.2012C55.7913 96.4549 55.5886 96.6687 55.3428 96.8224M55.9316 96.2012L55.3428 96.8224M55.3428 96.8224C55.0969 96.9761 54.8159 97.0646 54.5263 97.0795M55.3428 96.8224L54.5263 97.0795M54.5263 97.0795C54.2368 97.0944 53.9482 97.0353 53.6878 96.9077L54.5263 97.0795ZM97.5377 80.6765L97.5378 80.6764L111.285 62.699C111.286 62.6981 111.287 62.6973 111.287 62.6964C112.577 61.0184 113.213 58.9283 113.076 56.816C112.939 54.7026 112.037 52.7113 110.539 51.2141C109.042 49.7168 107.05 48.8158 104.936 48.6794C102.824 48.543 100.735 49.1794 99.0578 50.4698C99.0566 50.4707 99.0553 50.4717 99.0541 50.4726L81.0775 64.2194C81.0775 64.2195 81.0775 64.2195 81.0775 64.2195C75.7443 68.2976 71.372 73.4973 68.2694 79.4511C67.9415 80.0802 67.917 80.8241 68.2025 81.4735C68.4881 82.1228 69.053 82.6075 69.7382 82.791C71.9502 83.3836 73.9673 84.548 75.5865 86.1673C77.2058 87.7866 78.3703 89.8036 78.9628 92.0156C79.1464 92.7008 79.6309 93.2656 80.2802 93.5512C80.9295 93.8368 81.6733 93.8124 82.3024 93.4847C88.2576 90.3826 93.4586 86.0101 97.5377 80.6765ZM71.9991 84.1177C70.2548 83.2466 68.3314 82.7942 66.3817 82.7964C63.0464 82.7964 59.8477 84.1214 57.4893 86.4798C55.3429 88.6262 54.0525 91.4686 53.8378 94.4765C53.2051 94.3055 52.5413 94.2622 51.8858 94.3532C50.917 94.4877 50.0108 94.9091 49.2836 95.5632C48.5565 96.2173 48.0418 97.074 47.8059 98.0232C47.57 98.9723 47.6236 99.9703 47.9598 100.889L47.9616 100.894C49.2593 104.414 51.7533 107.365 55.0072 109.232C58.2612 111.099 62.0679 111.763 65.7617 111.107C69.4555 110.451 72.8011 108.518 75.2133 105.644C77.6256 102.771 78.9509 99.1415 78.9574 95.3899V95.3858L78.9574 95.3722L78.9574 95.3681C78.9533 93.0331 78.301 90.7452 77.0731 88.7591C75.8453 86.7731 74.0901 85.167 72.0031 84.1197L71.9991 84.1177ZM53.8059 95.3769C53.8059 95.3753 53.8059 95.3737 53.8059 95.3722L53.8059 95.3769Z" stroke="white" stroke-opacity="0.8" stroke-width="4.6775" stroke-linejoin="round" shape-rendering="crispEdges"/>
</g>
</g>
<defs>
<filter id="filter0_i_1_277" x="18" y="18" width="124" height="124" filterUnits="userSpaceOnUse" color-interpolation-filters="sRGB">
<feFlood flood-opacity="0" result="BackgroundImageFix"/>
<feBlend mode="normal" in="SourceGraphic" in2="BackgroundImageFix" result="shape"/>
<feColorMatrix in="SourceAlpha" type="matrix" values="0 0 0 0 0 0 0 0 0 0 0 0 0 0 0 0 0 0 127 0" result="hardAlpha"/>
<feOffset/>
<feGaussianBlur stdDeviation="22.5"/>
<feComposite in2="hardAlpha" operator="arithmetic" k2="-1" k3="1"/>
<feColorMatrix type="matrix" values="0 0 0 0 0.358333 0 0 0 0 0.0840788 0 0 0 0 0.0627083 0 0 0 1 0"/>
<feBlend mode="normal" in2="shape" result="effect1_innerShadow_1_277"/>
</filter>
<filter id="filter1_di_1_277" x="42.516" y="46.3225" width="75.7238" height="73.9182" filterUnits="userSpaceOnUse" color-interpolation-filters="sRGB">
<feFlood flood-opacity="0" result="BackgroundImageFix"/>
<feColorMatrix in="SourceAlpha" type="matrix" values="0 0 0 0 0 0 0 0 0 0 0 0 0 0 0 0 0 0 127 0" result="hardAlpha"/>
<feOffset dy="3.742"/>
<feGaussianBlur stdDeviation="1.40325"/>
<feComposite in2="hardAlpha" operator="out"/>
<feColorMatrix type="matrix" values="0 0 0 0 0 0 0 0 0 0 0 0 0 0 0 0 0 0 0.25 0"/>
<feBlend mode="normal" in2="BackgroundImageFix" result="effect1_dropShadow_1_277"/>
<feBlend mode="normal" in="SourceGraphic" in2="effect1_dropShadow_1_277" result="shape"/>
<feColorMatrix in="SourceAlpha" type="matrix" values="0 0 0 0 0 0 0 0 0 0 0 0 0 0 0 0 0 0 127 0" result="hardAlpha"/>
<feOffset dx="0.935499" dy="1.871"/>
<feGaussianBlur stdDeviation="6.54849"/>
<feComposite in2="hardAlpha" operator="arithmetic" k2="-1" k3="1"/>
<feColorMatrix type="matrix" values="0 0 0 0 0.576471 0 0 0 0 0.309804 0 0 0 0 0.196078 0 0 0 1 0"/>
<feBlend mode="normal" in2="shape" result="effect2_innerShadow_1_277"/>
</filter>
<linearGradient id="paint0_linear_1_277" x1="80" y1="0" x2="80" y2="160" gradientUnits="userSpaceOnUse">
<stop stop-color="#FFC190"/>
<stop offset="1" stop-color="#C35A2A"/>
</linearGradient>
<radialGradient id="paint1_radial_1_277" cx="0" cy="0" r="1" gradientUnits="userSpaceOnUse" gradientTransform="translate(80 80) rotate(90) scale(81)">
<stop stop-color="#DA9062"/>
<stop offset="1" stop-color="#C67341"/>
</radialGradient>
<radialGradient id="paint2_radial_1_277" cx="0" cy="0" r="1" gradientUnits="userSpaceOnUse" gradientTransform="translate(57 61) rotate(-44.2462) scale(53.7448 28.526)">
<stop stop-color="#B57777"/>
<stop offset="1" stop-color="#D28787" stop-opacity="0"/>
</radialGradient>
<linearGradient id="paint3_linear_1_277" x1="80" y1="28" x2="80" y2="132" gradientUnits="userSpaceOnUse">
<stop stop-opacity="0"/>
<stop offset="1"/>
</linearGradient>
<linearGradient id="paint4_linear_1_277" x1="80" y1="28" x2="80" y2="132" gradientUnits="userSpaceOnUse">
<stop stop-color="#C76030"/>
<stop offset="1" stop-color="#FCBC8B"/>
</linearGradient>
<radialGradient id="paint5_radial_1_277" cx="0" cy="0" r="1" gradientUnits="userSpaceOnUse" gradientTransform="translate(89.2708 56.7947) rotate(140.138) scale(54.427 123.847)">
<stop stop-color="#F5B77E"/>
<stop offset="1" stop-color="#C77830"/>
</radialGradient>
</defs>
</svg>
