<svg width="154" height="178" viewBox="0 0 154 178" fill="none" xmlns="http://www.w3.org/2000/svg">
<path d="M71.6114 2.31004C74.9412 0.367626 79.0588 0.367622 82.3886 2.31003L148.694 40.9883C151.98 42.9048 154 46.4222 154 50.2259V127.774C154 131.578 151.98 135.095 148.694 137.012L82.3886 175.69C79.0588 177.632 74.9412 177.632 71.6114 175.69L5.30583 137.012C2.02031 135.095 0 131.578 0 127.774V50.2259C0 46.4223 2.0203 42.9048 5.30582 40.9883L71.6114 2.31004Z" fill="url(#paint0_linear_1_277)"/>
<g filter="url(#filter0_i_1_277)">
<path d="M74.2996 31.7606C75.9676 30.7846 78.0324 30.7846 79.7004 31.7606L124.617 58.0416C126.256 59.0008 127.264 60.7576 127.264 62.6569V115.343C127.264 117.242 126.256 118.999 124.617 119.958L79.7004 146.239C78.0324 147.215 75.9676 147.215 74.2996 146.239L29.3829 119.958C27.7436 118.999 26.7361 117.242 26.7361 115.343V62.6569C26.7361 60.7576 27.7436 59.0008 29.3829 58.0416L74.2996 31.7606Z" fill="url(#paint1_radial_1_277)"/>
<path d="M74.2996 31.7606C75.9676 30.7846 78.0324 30.7846 79.7004 31.7606L124.617 58.0416C126.256 59.0008 127.264 60.7576 127.264 62.6569V115.343C127.264 117.242 126.256 118.999 124.617 119.958L79.7004 146.239C78.0324 147.215 75.9676 147.215 74.2996 146.239L29.3829 119.958C27.7436 118.999 26.7361 117.242 26.7361 115.343V62.6569C26.7361 60.7576 27.7436 59.0008 29.3829 58.0416L74.2996 31.7606Z" fill="url(#paint2_radial_1_277)" fill-opacity="0.29"/>
<path d="M74.2996 31.7606C75.9676 30.7846 78.0324 30.7846 79.7004 31.7606L124.617 58.0416C126.256 59.0008 127.264 60.7576 127.264 62.6569V115.343C127.264 117.242 126.256 118.999 124.617 119.958L79.7004 146.239C78.0324 147.215 75.9676 147.215 74.2996 146.239L29.3829 119.958C27.7436 118.999 26.7361 117.242 26.7361 115.343V62.6569C26.7361 60.7576 27.7436 59.0008 29.3829 58.0416L74.2996 31.7606Z" fill="url(#paint3_linear_1_277)" fill-opacity="0.2" style="mix-blend-mode:multiply"/>
</g>
<path d="M27.2226 54.3494L29.3549 57.9938L27.2226 54.3494C24.2718 56.0759 22.4583 59.2381 22.4583 62.6569V115.343C22.4583 118.762 24.2718 121.924 27.2226 123.651L72.1392 149.932C75.1416 151.688 78.8583 151.688 81.8607 149.932L126.777 123.651C129.728 121.924 131.542 118.762 131.542 115.343V62.6569C131.542 59.2381 129.728 56.0759 126.777 54.3494L81.8607 28.0684C78.8583 26.3117 75.1416 26.3117 72.1392 28.0684L27.2226 54.3494Z" stroke="url(#paint4_linear_1_277)" stroke-width="8.55556"/>
<path opacity="0.42" d="M84.2605 24.1612C79.7724 21.5499 74.2276 21.5499 69.7395 24.1612L24.8228 50.2946C20.3794 52.8798 17.6458 57.6328 17.6458 62.7736V115.226C17.6458 120.367 20.3794 125.12 24.8228 127.705L69.7395 153.839C74.2276 156.45 79.7724 156.45 84.2605 153.839L129.177 127.705C133.621 125.12 136.354 120.367 136.354 115.226V62.7736C136.354 57.6328 133.621 52.8798 129.177 50.2946L84.2605 24.1612Z" stroke="url(#paint5_linear_1_277)" stroke-width="1.06944"/>
<mask id="mask0_1_277" style="mask-type:alpha" maskUnits="userSpaceOnUse" x="26" y="31" width="102" height="116">
<path d="M74.2996 31.7606C75.9676 30.7846 78.0324 30.7846 79.7004 31.7606L124.617 58.0416C126.256 59.0008 127.264 60.7576 127.264 62.6569V115.343C127.264 117.242 126.256 118.999 124.617 119.958L79.7004 146.239C78.0324 147.215 75.9676 147.215 74.2996 146.239L29.3829 119.958C27.7436 118.999 26.7361 117.242 26.7361 115.343V62.6569C26.7361 60.7576 27.7436 59.0008 29.3829 58.0416L74.2996 31.7606Z" fill="#D9D9D9"/>
</mask>
<g mask="url(#mask0_1_277)">
<g filter="url(#filter1_di_1_277)">
<path d="M96.4813 60.3256C97.7092 59.3799 99.2393 58.9134 100.786 59.0133C102.333 59.1131 103.79 59.7724 104.886 60.8681C105.982 61.9638 106.642 63.421 106.742 64.9676C106.843 66.5142 106.377 68.0444 105.432 69.2727L91.6801 87.2557C87.8091 92.3173 82.8734 96.4666 77.222 99.4105C76.5232 96.8018 75.15 94.4232 73.2404 92.5136C71.3308 90.6039 68.9521 89.2307 66.3435 88.5319C69.2878 82.8819 73.4372 77.9474 78.4983 74.0773L96.4813 60.3256ZM62.3818 93.1352C59.6668 93.1352 57.0629 94.2137 55.1431 96.1335C53.2233 98.0533 52.1448 100.657 52.1448 103.372C52.1454 103.662 52.072 103.947 51.9317 104.201C51.7914 104.455 51.5888 104.669 51.3429 104.822C51.097 104.976 50.816 105.065 50.5264 105.079C50.2369 105.094 49.9483 105.035 49.6879 104.908C49.2292 104.682 48.7136 104.6 48.2075 104.67C47.7013 104.74 47.2278 104.96 46.8478 105.302C46.4679 105.644 46.199 106.091 46.0757 106.587C45.9524 107.083 45.9804 107.605 46.1561 108.085C47.2641 111.09 49.3932 113.61 52.1713 115.204C54.9493 116.798 58.1994 117.364 61.353 116.804C64.5065 116.244 67.3628 114.594 69.4223 112.141C71.4817 109.688 72.6132 106.589 72.6188 103.386V103.372C72.6155 101.47 72.0841 99.6067 71.084 97.989C70.0839 96.3713 68.6542 95.0631 66.9543 94.2101C65.5345 93.501 63.9688 93.133 62.3818 93.1352Z" fill="url(#paint6_radial_1_277)" shape-rendering="crispEdges"/>
<path d="M52.1448 103.372C52.1448 100.657 53.2233 98.0533 55.1431 96.1335C57.0629 94.2137 59.6668 93.1352 62.3818 93.1352C63.9688 93.133 65.5345 93.501 66.9543 94.2101L52.1448 103.372ZM52.1448 103.372C52.1454 103.662 52.072 103.947 51.9317 104.201C51.7914 104.455 51.5888 104.669 51.3429 104.822C51.097 104.976 50.816 105.065 50.5264 105.079C50.2369 105.094 49.9483 105.035 49.6879 104.908M52.1448 103.372L49.6879 104.908M50.4386 103.376L50.4402 103.376L50.4386 103.376ZM50.4386 103.376L50.4398 103.377M50.4386 103.376L50.4403 103.372L50.7879 102.663C50.6668 102.603 50.5325 102.576 50.3978 102.583C50.263 102.59 50.1323 102.631 50.0179 102.702C49.9035 102.774 49.8092 102.873 49.7439 102.991C49.6794 103.108 49.6454 103.239 49.6448 103.372L50.4398 103.377M50.4386 103.376L50.4398 103.377M50.4386 103.376L49.6879 104.908M50.4398 103.377L49.6879 104.908M93.6659 88.7744L93.666 88.7743L107.413 70.7974C107.414 70.7965 107.414 70.7957 107.415 70.7949C108.729 69.0858 109.377 66.9571 109.237 64.8056C109.097 62.6531 108.179 60.625 106.653 59.1C105.128 57.575 103.1 56.6574 100.947 56.5185C98.7958 56.3796 96.6676 57.0278 94.9592 58.3423C94.9581 58.3431 94.957 58.344 94.9558 58.3449L76.9797 72.0914C76.9796 72.0914 76.9796 72.0914 76.9796 72.0914C71.6277 76.1839 67.24 81.4019 64.1265 87.3766C63.7761 88.0491 63.7498 88.8442 64.055 89.5384C64.3603 90.2325 64.9642 90.7506 65.6966 90.9468C67.8813 91.532 69.8734 92.6821 71.4726 94.2813C73.0719 95.8806 74.222 97.8727 74.8072 100.057C75.0034 100.79 75.5214 101.394 76.2154 101.699C76.9094 102.004 77.7045 101.978 78.377 101.628C84.3531 98.5147 89.5724 94.1269 93.6659 88.7744ZM68.0713 91.9734C66.3039 91.0908 64.3551 90.6326 62.3796 90.6352C59.0023 90.6357 55.7635 91.9776 53.3754 94.3657C51.247 96.4942 49.9496 99.2983 49.6922 102.274C49.0958 102.137 48.4762 102.108 47.8637 102.194C46.8631 102.332 45.927 102.768 45.1759 103.443C44.4249 104.119 43.8932 105.004 43.6495 105.984C43.4058 106.965 43.4612 107.995 43.8085 108.944L43.8105 108.949C45.1213 112.505 47.6403 115.486 50.9271 117.372C54.2138 119.258 58.059 119.928 61.79 119.266C65.521 118.603 68.9004 116.65 71.3369 113.748C73.7735 110.846 75.1122 107.18 75.1188 103.39V103.386L75.1188 103.372L75.1188 103.368C75.1146 101.003 74.454 98.6858 73.2104 96.6743C71.9668 94.6629 70.1892 93.0362 68.0756 91.9756L68.0713 91.9734Z" stroke="#F0E1FF" stroke-opacity="0.9" stroke-width="5" stroke-linejoin="round" shape-rendering="crispEdges"/>
</g>
</g>
<defs>
<filter id="filter0_i_1_277" x="18.1805" y="22.4731" width="117.639" height="133.054" filterUnits="userSpaceOnUse" color-interpolation-filters="sRGB">
<feFlood flood-opacity="0" result="BackgroundImageFix"/>
<feBlend mode="normal" in="SourceGraphic" in2="BackgroundImageFix" result="shape"/>
<feColorMatrix in="SourceAlpha" type="matrix" values="0 0 0 0 0 0 0 0 0 0 0 0 0 0 0 0 0 0 127 0" result="hardAlpha"/>
<feOffset/>
<feGaussianBlur stdDeviation="24.0625"/>
<feComposite in2="hardAlpha" operator="arithmetic" k2="-1" k3="1"/>
<feColorMatrix type="matrix" values="0 0 0 0 0.203922 0 0 0 0 0.176471 0 0 0 0 0.478431 0 0 0 1 0"/>
<feBlend mode="normal" in2="shape" result="effect1_innerShadow_1_277"/>
</filter>
<filter id="filter1_di_1_277" x="38.0001" y="54" width="76.7557" height="75.0147" filterUnits="userSpaceOnUse" color-interpolation-filters="sRGB">
<feFlood flood-opacity="0" result="BackgroundImageFix"/>
<feColorMatrix in="SourceAlpha" type="matrix" values="0 0 0 0 0 0 0 0 0 0 0 0 0 0 0 0 0 0 127 0" result="hardAlpha"/>
<feOffset dy="4"/>
<feGaussianBlur stdDeviation="1.5"/>
<feComposite in2="hardAlpha" operator="out"/>
<feColorMatrix type="matrix" values="0 0 0 0 0 0 0 0 0 0 0 0 0 0 0 0 0 0 0.25 0"/>
<feBlend mode="normal" in2="BackgroundImageFix" result="effect1_dropShadow_1_277"/>
<feBlend mode="normal" in="SourceGraphic" in2="effect1_dropShadow_1_277" result="shape"/>
<feColorMatrix in="SourceAlpha" type="matrix" values="0 0 0 0 0 0 0 0 0 0 0 0 0 0 0 0 0 0 127 0" result="hardAlpha"/>
<feOffset dx="1" dy="2"/>
<feGaussianBlur stdDeviation="7"/>
<feComposite in2="hardAlpha" operator="arithmetic" k2="-1" k3="1"/>
<feColorMatrix type="matrix" values="0 0 0 0 0.215686 0 0 0 0 0.184314 0 0 0 0 0.482353 0 0 0 1 0"/>
<feBlend mode="normal" in2="shape" result="effect2_innerShadow_1_277"/>
</filter>
<linearGradient id="paint0_linear_1_277" x1="29.4097" y1="11.4653" x2="98.9236" y2="169.743" gradientUnits="userSpaceOnUse">
<stop stop-color="#CE9CFF"/>
<stop offset="1" stop-color="#8058CB"/>
</linearGradient>
<radialGradient id="paint1_radial_1_277" cx="0" cy="0" r="1" gradientUnits="userSpaceOnUse" gradientTransform="translate(77 91.6026) rotate(90) scale(95.6767 82.7275)">
<stop stop-color="#534BA2"/>
<stop offset="1" stop-color="#312974"/>
</radialGradient>
<radialGradient id="paint2_radial_1_277" cx="0" cy="0" r="1" gradientUnits="userSpaceOnUse" gradientTransform="translate(53.5094 69.1599) rotate(-48.4041) scale(59.2298 31.2265)">
<stop stop-color="white"/>
<stop offset="1" stop-color="white" stop-opacity="0"/>
</radialGradient>
<linearGradient id="paint3_linear_1_277" x1="77" y1="30.1806" x2="77" y2="153.025" gradientUnits="userSpaceOnUse">
<stop stop-color="#765913" stop-opacity="0"/>
<stop offset="0.0001" stop-color="#30297A" stop-opacity="0"/>
<stop offset="1" stop-color="#30297A"/>
</linearGradient>
<linearGradient id="paint4_linear_1_277" x1="77" y1="30.1806" x2="77" y2="153.025" gradientUnits="userSpaceOnUse">
<stop stop-color="#966FD6"/>
<stop offset="1" stop-color="#C696F9"/>
</linearGradient>
<linearGradient id="paint5_linear_1_277" x1="65.2361" y1="20.5556" x2="88.7639" y2="160.118" gradientUnits="userSpaceOnUse">
<stop stop-color="#D5B3FB"/>
<stop offset="1" stop-color="#A075E8"/>
</linearGradient>
<radialGradient id="paint6_radial_1_277" cx="0" cy="0" r="1" gradientUnits="userSpaceOnUse" gradientTransform="translate(85.2709 64.7947) rotate(134.483) scale(73.1717 166.5)">
<stop stop-color="#C594F9"/>
<stop offset="1" stop-color="#875ECF"/>
</radialGradient>
</defs>
</svg>
