<svg width="194" height="194" viewBox="0 0 194 194" fill="none" xmlns="http://www.w3.org/2000/svg">
<g filter="url(#filter0_ii_1_277)">
<rect x="97" y="-4" width="142.836" height="142.836" rx="10.5208" transform="rotate(45 97 -4)" fill="url(#paint0_linear_1_277)"/>
</g>
<rect x="25.4584" y="25.4583" width="143.083" height="143.083" rx="10.5208" fill="url(#paint1_linear_1_277)"/>
<g filter="url(#filter1_i_1_277)">
<rect x="48.6041" y="48.6042" width="96.7917" height="96.7917" rx="5.26042" fill="url(#paint2_radial_1_277)"/>
<rect x="48.6041" y="48.6042" width="96.7917" height="96.7917" rx="5.26042" fill="url(#paint3_radial_1_277)" fill-opacity="0.29"/>
<rect x="48.6041" y="48.6042" width="96.7917" height="96.7917" rx="5.26042" fill="url(#paint4_linear_1_277)" fill-opacity="0.2" style="mix-blend-mode:multiply"/>
</g>
<rect x="44.3958" y="44.3958" width="105.208" height="105.208" rx="9.46875" stroke="url(#paint5_linear_1_277)" stroke-width="8.41667"/>
<rect opacity="0.47" x="39.4911" y="39.4911" width="115.018" height="115.018" rx="14.7589" stroke="url(#paint6_linear_1_277)" stroke-width="1.01786"/>
<mask id="mask0_1_277" style="mask-type:alpha" maskUnits="userSpaceOnUse" x="48" y="48" width="98" height="98">
<rect x="48.6041" y="48.6042" width="96.7917" height="96.7917" rx="5.26042" fill="#D9D9D9"/>
</mask>
<g mask="url(#mask0_1_277)">
<g filter="url(#filter2_di_1_277)">
<path d="M116.481 68.3256C117.709 67.3799 119.239 66.9134 120.786 67.0133C122.333 67.1131 123.79 67.7724 124.886 68.8681C125.982 69.9638 126.642 71.421 126.742 72.9676C126.843 74.5142 126.377 76.0444 125.432 77.2727L111.68 95.2557C107.809 100.317 102.873 104.467 97.222 107.41C96.5232 104.802 95.15 102.423 93.2404 100.514C91.3308 98.6039 88.9521 97.2307 86.3435 96.5319C89.2878 90.8819 93.4372 85.9474 98.4983 82.0773L116.481 68.3256ZM82.3818 101.135C79.6668 101.135 77.0629 102.214 75.1431 104.134C73.2233 106.053 72.1448 108.657 72.1448 111.372C72.1454 111.662 72.072 111.947 71.9317 112.201C71.7914 112.455 71.5888 112.669 71.3429 112.822C71.097 112.976 70.816 113.065 70.5264 113.079C70.2369 113.094 69.9483 113.035 69.6879 112.908C69.2292 112.682 68.7136 112.6 68.2075 112.67C67.7013 112.74 67.2278 112.96 66.8478 113.302C66.4679 113.644 66.199 114.091 66.0757 114.587C65.9524 115.083 65.9804 115.605 66.1561 116.085C67.2641 119.09 69.3932 121.61 72.1713 123.204C74.9493 124.798 78.1994 125.364 81.353 124.804C84.5065 124.244 87.3628 122.594 89.4223 120.141C91.4817 117.688 92.6132 114.589 92.6188 111.386V111.372C92.6155 109.47 92.0841 107.607 91.084 105.989C90.0839 104.371 88.6542 103.063 86.9543 102.21C85.5345 101.501 83.9688 101.133 82.3818 101.135Z" fill="url(#paint7_radial_1_277)" shape-rendering="crispEdges"/>
<path d="M72.1448 111.372C72.1448 108.657 73.2233 106.053 75.1431 104.134C77.0629 102.214 79.6668 101.135 82.3818 101.135C83.9688 101.133 85.5345 101.501 86.9543 102.21L72.1448 111.372ZM72.1448 111.372C72.1454 111.662 72.072 111.947 71.9317 112.201C71.7914 112.455 71.5888 112.669 71.3429 112.822C71.097 112.976 70.816 113.065 70.5264 113.079C70.2369 113.094 69.9483 113.035 69.6879 112.908M72.1448 111.372L69.6879 112.908M70.4386 111.376L70.4402 111.376L70.4386 111.376ZM70.4386 111.376L70.4398 111.377M70.4386 111.376L70.4403 111.372L70.7879 110.663C70.6668 110.603 70.5325 110.576 70.3978 110.583C70.263 110.59 70.1323 110.631 70.0179 110.702C69.9035 110.774 69.8092 110.873 69.7439 110.991C69.6794 111.108 69.6454 111.239 69.6448 111.372L70.4398 111.377M70.4386 111.376L70.4398 111.377M70.4386 111.376L69.6879 112.908M70.4398 111.377L69.6879 112.908M113.666 96.7744L113.666 96.7743L127.413 78.7974C127.414 78.7965 127.414 78.7957 127.415 78.7949C128.729 77.0858 129.377 74.9571 129.237 72.8056C129.097 70.6531 128.179 68.625 126.653 67.1C125.128 65.575 123.1 64.6574 120.947 64.5185C118.796 64.3796 116.668 65.0278 114.959 66.3423C114.958 66.3431 114.957 66.344 114.956 66.3449L96.9797 80.0914C96.9796 80.0914 96.9796 80.0914 96.9796 80.0914C91.6277 84.1839 87.24 89.4019 84.1265 95.3766C83.7761 96.0491 83.7498 96.8442 84.055 97.5384C84.3603 98.2325 84.9642 98.7506 85.6966 98.9468C87.8813 99.532 89.8734 100.682 91.4726 102.281C93.0719 103.881 94.222 105.873 94.8072 108.057C95.0034 108.79 95.5214 109.394 96.2154 109.699C96.9094 110.004 97.7045 109.978 98.377 109.628C104.353 106.515 109.572 102.127 113.666 96.7744ZM88.0713 99.9734C86.3039 99.0908 84.3551 98.6326 82.3796 98.6352C79.0023 98.6357 75.7635 99.9776 73.3754 102.366C71.247 104.494 69.9496 107.298 69.6922 110.274C69.0958 110.137 68.4762 110.108 67.8637 110.194C66.8631 110.332 65.927 110.768 65.1759 111.443C64.4249 112.119 63.8932 113.004 63.6495 113.984C63.4058 114.965 63.4612 115.995 63.8085 116.944L63.8105 116.949C65.1213 120.505 67.6403 123.486 70.9271 125.372C74.2138 127.258 78.059 127.928 81.79 127.266C85.521 126.603 88.9004 124.65 91.3369 121.748C93.7735 118.846 95.1122 115.18 95.1188 111.39V111.386L95.1188 111.372L95.1188 111.368C95.1146 109.003 94.454 106.686 93.2104 104.674C91.9668 102.663 90.1892 101.036 88.0756 99.9756L88.0713 99.9734Z" stroke="#F1FFF1" stroke-opacity="0.9" stroke-width="5" stroke-linejoin="round" shape-rendering="crispEdges"/>
</g>
</g>
<defs>
<filter id="filter0_ii_1_277" x="0.357788" y="-7.0067" width="193.284" height="204.857" filterUnits="userSpaceOnUse" color-interpolation-filters="sRGB">
<feFlood flood-opacity="0" result="BackgroundImageFix"/>
<feBlend mode="normal" in="SourceGraphic" in2="BackgroundImageFix" result="shape"/>
<feColorMatrix in="SourceAlpha" type="matrix" values="0 0 0 0 0 0 0 0 0 0 0 0 0 0 0 0 0 0 127 0" result="hardAlpha"/>
<feOffset dy="4.20833"/>
<feGaussianBlur stdDeviation="5.78646"/>
<feComposite in2="hardAlpha" operator="arithmetic" k2="-1" k3="1"/>
<feColorMatrix type="matrix" values="0 0 0 0 0.645833 0 0 0 0 1 0 0 0 0 0.645833 0 0 0 0.6 0"/>
<feBlend mode="normal" in2="shape" result="effect1_innerShadow_1_277"/>
<feColorMatrix in="SourceAlpha" type="matrix" values="0 0 0 0 0 0 0 0 0 0 0 0 0 0 0 0 0 0 127 0" result="hardAlpha"/>
<feOffset dy="-7.36458"/>
<feGaussianBlur stdDeviation="4.20833"/>
<feComposite in2="hardAlpha" operator="arithmetic" k2="-1" k3="1"/>
<feColorMatrix type="matrix" values="0 0 0 0 0.0196078 0 0 0 0 0.505882 0 0 0 0 0.0196078 0 0 0 1 0"/>
<feBlend mode="normal" in2="effect1_innerShadow_1_277" result="effect2_innerShadow_1_277"/>
</filter>
<filter id="filter1_i_1_277" x="40.1875" y="40.1875" width="113.625" height="113.625" filterUnits="userSpaceOnUse" color-interpolation-filters="sRGB">
<feFlood flood-opacity="0" result="BackgroundImageFix"/>
<feBlend mode="normal" in="SourceGraphic" in2="BackgroundImageFix" result="shape"/>
<feColorMatrix in="SourceAlpha" type="matrix" values="0 0 0 0 0 0 0 0 0 0 0 0 0 0 0 0 0 0 127 0" result="hardAlpha"/>
<feOffset/>
<feGaussianBlur stdDeviation="23.6719"/>
<feComposite in2="hardAlpha" operator="arithmetic" k2="-1" k3="1"/>
<feColorMatrix type="matrix" values="0 0 0 0 0.00392157 0 0 0 0 0.407843 0 0 0 0 0.0117647 0 0 0 1 0"/>
<feBlend mode="normal" in2="shape" result="effect1_innerShadow_1_277"/>
</filter>
<filter id="filter2_di_1_277" x="58.0001" y="62" width="76.7557" height="75.0147" filterUnits="userSpaceOnUse" color-interpolation-filters="sRGB">
<feFlood flood-opacity="0" result="BackgroundImageFix"/>
<feColorMatrix in="SourceAlpha" type="matrix" values="0 0 0 0 0 0 0 0 0 0 0 0 0 0 0 0 0 0 127 0" result="hardAlpha"/>
<feOffset dy="4"/>
<feGaussianBlur stdDeviation="1.5"/>
<feComposite in2="hardAlpha" operator="out"/>
<feColorMatrix type="matrix" values="0 0 0 0 0 0 0 0 0 0 0 0 0 0 0 0 0 0 0.25 0"/>
<feBlend mode="normal" in2="BackgroundImageFix" result="effect1_dropShadow_1_277"/>
<feBlend mode="normal" in="SourceGraphic" in2="effect1_dropShadow_1_277" result="shape"/>
<feColorMatrix in="SourceAlpha" type="matrix" values="0 0 0 0 0 0 0 0 0 0 0 0 0 0 0 0 0 0 127 0" result="hardAlpha"/>
<feOffset dx="1" dy="2"/>
<feGaussianBlur stdDeviation="7"/>
<feComposite in2="hardAlpha" operator="arithmetic" k2="-1" k3="1"/>
<feColorMatrix type="matrix" values="0 0 0 0 0.0196078 0 0 0 0 0.494118 0 0 0 0 0.0156863 0 0 0 1 0"/>
<feBlend mode="normal" in2="shape" result="effect2_innerShadow_1_277"/>
</filter>
<linearGradient id="paint0_linear_1_277" x1="86.2129" y1="41.752" x2="219.313" y2="140.241" gradientUnits="userSpaceOnUse">
<stop stop-color="#61DF61"/>
<stop offset="1" stop-color="#168416"/>
</linearGradient>
<linearGradient id="paint1_linear_1_277" x1="52.7833" y1="35.2527" x2="102.361" y2="166.952" gradientUnits="userSpaceOnUse">
<stop stop-color="#79F07A"/>
<stop offset="1" stop-color="#1F921F"/>
</linearGradient>
<radialGradient id="paint2_radial_1_277" cx="0" cy="0" r="1" gradientUnits="userSpaceOnUse" gradientTransform="translate(97 99.1414) rotate(90) scale(78.7215 79.653)">
<stop stop-color="#0FDB0C"/>
<stop offset="1" stop-color="#089604"/>
</radialGradient>
<radialGradient id="paint3_radial_1_277" cx="0" cy="0" r="1" gradientUnits="userSpaceOnUse" gradientTransform="translate(74.3825 80.6759) rotate(-43.9093) scale(52.551 27.8818)">
<stop stop-color="white"/>
<stop offset="1" stop-color="white" stop-opacity="0"/>
</radialGradient>
<linearGradient id="paint4_linear_1_277" x1="97" y1="48.6042" x2="97" y2="149.679" gradientUnits="userSpaceOnUse">
<stop stop-color="#005900" stop-opacity="0"/>
<stop offset="1" stop-color="#005900"/>
</linearGradient>
<linearGradient id="paint5_linear_1_277" x1="97" y1="48.6042" x2="97" y2="149.679" gradientUnits="userSpaceOnUse">
<stop stop-color="#209220"/>
<stop offset="1" stop-color="#7AF17A"/>
</linearGradient>
<linearGradient id="paint6_linear_1_277" x1="70.5" y1="33.5" x2="117" y2="163.5" gradientUnits="userSpaceOnUse">
<stop stop-color="#AFFFAF"/>
<stop offset="1" stop-color="#46C146"/>
</linearGradient>
<radialGradient id="paint7_radial_1_277" cx="0" cy="0" r="1" gradientUnits="userSpaceOnUse" gradientTransform="translate(103.756 76) rotate(129.85) scale(82.7119 188.209)">
<stop stop-color="#8BDC8B"/>
<stop offset="1" stop-color="#316331"/>
</radialGradient>
</defs>
</svg>
