<svg width="176" height="167" viewBox="0 0 176 167" fill="none" xmlns="http://www.w3.org/2000/svg">
<path d="M81.4656 2.19221C85.3628 -0.636097 90.6372 -0.6361 94.5343 2.19221L170.452 57.2887C174.356 60.1216 175.989 65.1471 174.498 69.7337L145.504 158.866C144.014 163.448 139.743 166.55 134.925 166.55H41.075C36.2567 166.55 31.986 163.448 30.4956 158.866L1.50248 69.7337C0.010548 65.1471 1.644 60.1216 5.5475 57.2887L81.4656 2.19221Z" fill="url(#paint0_linear_1_277)"/>
<g filter="url(#filter0_i_1_277)">
<path d="M84.7059 29.9085C86.6658 28.4681 89.3342 28.4681 91.2941 29.9085L145.933 70.0642C147.874 71.4907 148.676 74.0044 147.92 76.2916L127.077 139.37C126.324 141.649 124.195 143.188 121.796 143.188H54.2043C51.8047 143.188 49.6756 141.649 48.9227 139.37L28.0798 76.2916C27.3241 74.0044 28.1263 71.4907 30.0673 70.0642L84.7059 29.9085Z" fill="url(#paint1_radial_1_277)"/>
<path d="M84.7059 29.9085C86.6658 28.4681 89.3342 28.4681 91.2941 29.9085L145.933 70.0642C147.874 71.4907 148.676 74.0044 147.92 76.2916L127.077 139.37C126.324 141.649 124.195 143.188 121.796 143.188H54.2043C51.8047 143.188 49.6756 141.649 48.9227 139.37L28.0798 76.2916C27.3241 74.0044 28.1263 71.4907 30.0673 70.0642L84.7059 29.9085Z" fill="url(#paint2_radial_1_277)" fill-opacity="0.29"/>
<path d="M84.7059 29.9085C86.6658 28.4681 89.3342 28.4681 91.2941 29.9085L145.933 70.0642C147.874 71.4907 148.676 74.0044 147.92 76.2916L127.077 139.37C126.324 141.649 124.195 143.188 121.796 143.188H54.2043C51.8047 143.188 49.6756 141.649 48.9227 139.37L28.0798 76.2916C27.3241 74.0044 28.1263 71.4907 30.0673 70.0642L84.7059 29.9085Z" fill="url(#paint3_linear_1_277)" fill-opacity="0.2" style="mix-blend-mode:multiply"/>
</g>
<path d="M82.0706 26.3227L84.7059 29.9085L82.0706 26.3227L27.432 66.4785C23.9382 69.0462 22.4941 73.5709 23.8545 77.6878L44.6974 140.766C46.0526 144.868 49.885 147.637 54.2043 147.637H121.796C126.115 147.637 129.947 144.868 131.303 140.766L152.146 77.6878C153.506 73.5709 152.062 69.0462 148.568 66.4785L93.9294 26.3227C90.4016 23.73 85.5984 23.73 82.0706 26.3227Z" stroke="url(#paint4_linear_1_277)" stroke-width="8.9"/>
<path opacity="0.88" d="M96.9408 22.2944C91.6297 18.3595 84.3703 18.3595 79.0592 22.2944L24.8519 62.4565C19.654 66.3076 17.5061 73.0544 19.521 79.2018L40.2035 142.303C42.2257 148.472 47.983 152.644 54.4752 152.644H121.525C128.017 152.644 133.774 148.472 135.797 142.303L156.479 79.2018C158.494 73.0544 156.346 66.3076 151.148 62.4565L96.9408 22.2944Z" stroke="url(#paint5_linear_1_277)" stroke-width="1.1125"/>
<mask id="mask0_1_277" style="mask-type:alpha" maskUnits="userSpaceOnUse" x="27" y="28" width="122" height="116">
<path d="M84.7059 29.9085C86.6658 28.4681 89.3342 28.4681 91.2941 29.9085L145.933 70.0642C147.874 71.4907 148.676 74.0044 147.92 76.2916L127.077 139.37C126.324 141.649 124.195 143.188 121.796 143.188H54.2043C51.8047 143.188 49.6756 141.649 48.9227 139.37L28.0798 76.2916C27.3241 74.0044 28.1263 71.4907 30.0673 70.0642L84.7059 29.9085Z" fill="#D9D9D9"/>
</mask>
<g mask="url(#mask0_1_277)">
<g filter="url(#filter1_di_1_277)">
<path d="M107.481 63.3256C108.709 62.3799 110.239 61.9134 111.786 62.0133C113.333 62.1131 114.79 62.7724 115.886 63.8681C116.982 64.9638 117.642 66.421 117.742 67.9676C117.843 69.5142 117.377 71.0444 116.432 72.2727L102.68 90.2557C98.8091 95.3173 93.8734 99.4666 88.222 102.41C87.5232 99.8018 86.15 97.4232 84.2404 95.5136C82.3308 93.6039 79.9521 92.2307 77.3435 91.5319C80.2878 85.8819 84.4372 80.9474 89.4983 77.0773L107.481 63.3256ZM73.3818 96.1352C70.6668 96.1352 68.0629 97.2137 66.1431 99.1335C64.2233 101.053 63.1448 103.657 63.1448 106.372C63.1454 106.662 63.072 106.947 62.9317 107.201C62.7914 107.455 62.5888 107.669 62.3429 107.822C62.097 107.976 61.816 108.065 61.5264 108.079C61.2369 108.094 60.9483 108.035 60.6879 107.908C60.2292 107.682 59.7136 107.6 59.2075 107.67C58.7013 107.74 58.2278 107.96 57.8478 108.302C57.4679 108.644 57.199 109.091 57.0757 109.587C56.9524 110.083 56.9804 110.605 57.1561 111.085C58.2641 114.09 60.3932 116.61 63.1713 118.204C65.9493 119.798 69.1994 120.364 72.353 119.804C75.5065 119.244 78.3628 117.594 80.4223 115.141C82.4817 112.688 83.6132 109.589 83.6188 106.386V106.372C83.6155 104.47 83.0841 102.607 82.084 100.989C81.0839 99.3713 79.6542 98.0631 77.9543 97.2101C76.5345 96.501 74.9688 96.133 73.3818 96.1352Z" fill="url(#paint6_radial_1_277)" shape-rendering="crispEdges"/>
<path d="M63.1448 106.372C63.1448 103.657 64.2233 101.053 66.1431 99.1335C68.0629 97.2137 70.6668 96.1352 73.3818 96.1352C74.9688 96.133 76.5345 96.501 77.9543 97.2101L63.1448 106.372ZM63.1448 106.372C63.1454 106.662 63.072 106.947 62.9317 107.201C62.7914 107.455 62.5888 107.669 62.3429 107.822C62.097 107.976 61.816 108.065 61.5264 108.079C61.2369 108.094 60.9483 108.035 60.6879 107.908M63.1448 106.372L60.6879 107.908M61.4386 106.376L61.4402 106.376L61.4386 106.376ZM61.4386 106.376L61.4398 106.377M61.4386 106.376L61.4403 106.372L61.7879 105.663C61.6668 105.603 61.5325 105.576 61.3978 105.583C61.263 105.59 61.1323 105.631 61.0179 105.702C60.9035 105.774 60.8092 105.873 60.7439 105.991C60.6794 106.108 60.6454 106.239 60.6448 106.372L61.4398 106.377M61.4386 106.376L61.4398 106.377M61.4386 106.376L60.6879 107.908M61.4398 106.377L60.6879 107.908M104.666 91.7744L104.666 91.7743L118.413 73.7974C118.414 73.7965 118.414 73.7957 118.415 73.7949C119.729 72.0858 120.377 69.9571 120.237 67.8056C120.097 65.6531 119.179 63.625 117.653 62.1C116.128 60.575 114.1 59.6574 111.947 59.5185C109.796 59.3796 107.668 60.0278 105.959 61.3423C105.958 61.3431 105.957 61.344 105.956 61.3449L87.9797 75.0914C87.9796 75.0914 87.9796 75.0914 87.9796 75.0914C82.6277 79.1839 78.24 84.4019 75.1265 90.3766C74.7761 91.0491 74.7498 91.8442 75.055 92.5384C75.3603 93.2325 75.9642 93.7506 76.6966 93.9468C78.8813 94.532 80.8734 95.6821 82.4726 97.2813C84.0719 98.8806 85.222 100.873 85.8072 103.057C86.0034 103.79 86.5214 104.394 87.2154 104.699C87.9094 105.004 88.7045 104.978 89.377 104.628C95.3531 101.515 100.572 97.1269 104.666 91.7744ZM79.0713 94.9734C77.3039 94.0908 75.3551 93.6326 73.3796 93.6352C70.0023 93.6357 66.7635 94.9776 64.3754 97.3657C62.247 99.4942 60.9496 102.298 60.6922 105.274C60.0958 105.137 59.4762 105.108 58.8637 105.194C57.8631 105.332 56.927 105.768 56.1759 106.443C55.4249 107.119 54.8932 108.004 54.6495 108.984C54.4058 109.965 54.4612 110.995 54.8085 111.944L54.8105 111.949C56.1213 115.505 58.6403 118.486 61.9271 120.372C65.2138 122.258 69.059 122.928 72.79 122.266C76.521 121.603 79.9004 119.65 82.3369 116.748C84.7735 113.846 86.1122 110.18 86.1188 106.39V106.386L86.1188 106.372L86.1188 106.368C86.1146 104.003 85.454 101.686 84.2104 99.6743C82.9668 97.6629 81.1892 96.0362 79.0756 94.9756L79.0713 94.9734Z" stroke="white" stroke-opacity="0.8" stroke-width="5" stroke-linejoin="round" shape-rendering="crispEdges"/>
</g>
</g>
<defs>
<filter id="filter0_i_1_277" x="18.8979" y="19.9282" width="138.204" height="132.159" filterUnits="userSpaceOnUse" color-interpolation-filters="sRGB">
<feFlood flood-opacity="0" result="BackgroundImageFix"/>
<feBlend mode="normal" in="SourceGraphic" in2="BackgroundImageFix" result="shape"/>
<feColorMatrix in="SourceAlpha" type="matrix" values="0 0 0 0 0 0 0 0 0 0 0 0 0 0 0 0 0 0 127 0" result="hardAlpha"/>
<feOffset/>
<feGaussianBlur stdDeviation="25.0312"/>
<feComposite in2="hardAlpha" operator="arithmetic" k2="-1" k3="1"/>
<feColorMatrix type="matrix" values="0 0 0 0 0.7875 0 0 0 0 0.62959 0 0 0 0 0.246094 0 0 0 1 0"/>
<feBlend mode="normal" in2="shape" result="effect1_innerShadow_1_277"/>
</filter>
<filter id="filter1_di_1_277" x="49.0001" y="57" width="76.7557" height="75.0147" filterUnits="userSpaceOnUse" color-interpolation-filters="sRGB">
<feFlood flood-opacity="0" result="BackgroundImageFix"/>
<feColorMatrix in="SourceAlpha" type="matrix" values="0 0 0 0 0 0 0 0 0 0 0 0 0 0 0 0 0 0 127 0" result="hardAlpha"/>
<feOffset dy="4"/>
<feGaussianBlur stdDeviation="1.5"/>
<feComposite in2="hardAlpha" operator="out"/>
<feColorMatrix type="matrix" values="0 0 0 0 0 0 0 0 0 0 0 0 0 0 0 0 0 0 0.25 0"/>
<feBlend mode="normal" in2="BackgroundImageFix" result="effect1_dropShadow_1_277"/>
<feBlend mode="normal" in="SourceGraphic" in2="effect1_dropShadow_1_277" result="shape"/>
<feColorMatrix in="SourceAlpha" type="matrix" values="0 0 0 0 0 0 0 0 0 0 0 0 0 0 0 0 0 0 127 0" result="hardAlpha"/>
<feOffset dx="1" dy="2"/>
<feGaussianBlur stdDeviation="7"/>
<feComposite in2="hardAlpha" operator="arithmetic" k2="-1" k3="1"/>
<feColorMatrix type="matrix" values="0 0 0 0 0.835294 0 0 0 0 0.623529 0 0 0 0 0.176471 0 0 0 1 0"/>
<feBlend mode="normal" in2="shape" result="effect2_innerShadow_1_277"/>
</filter>
<linearGradient id="paint0_linear_1_277" x1="51.8438" y1="1.89999" x2="115.256" y2="150.975" gradientUnits="userSpaceOnUse">
<stop stop-color="#FDF0D5"/>
<stop offset="1" stop-color="#F8D169"/>
</linearGradient>
<radialGradient id="paint1_radial_1_277" cx="0" cy="0" r="1" gradientUnits="userSpaceOnUse" gradientTransform="translate(88 87.8972) rotate(90) scale(94.0998 100.706)">
<stop stop-color="#FECC2B"/>
<stop offset="1" stop-color="#F1A420"/>
</radialGradient>
<radialGradient id="paint2_radial_1_277" cx="0" cy="0" r="1" gradientUnits="userSpaceOnUse" gradientTransform="translate(59.4044 65.8244) rotate(-42.3062) scale(64.7232 34.2131)">
<stop stop-color="white"/>
<stop offset="1" stop-color="white" stop-opacity="0"/>
</radialGradient>
<linearGradient id="paint3_linear_1_277" x1="88" y1="27.4875" x2="88" y2="148.307" gradientUnits="userSpaceOnUse">
<stop stop-color="#765913" stop-opacity="0"/>
<stop offset="1" stop-color="#816011"/>
</linearGradient>
<linearGradient id="paint4_linear_1_277" x1="88" y1="27.4875" x2="88" y2="148.307" gradientUnits="userSpaceOnUse">
<stop stop-color="#F6CD62"/>
<stop offset="1" stop-color="#FFE9B8"/>
</linearGradient>
<linearGradient id="paint5_linear_1_277" x1="88" y1="16.3625" x2="88" y2="152.088" gradientUnits="userSpaceOnUse">
<stop stop-color="#FCEAC0"/>
<stop offset="1" stop-color="#FFE296"/>
</linearGradient>
<radialGradient id="paint6_radial_1_277" cx="0" cy="0" r="1" gradientUnits="userSpaceOnUse" gradientTransform="translate(104.5 62) rotate(139.497) scale(94.6903 215.465)">
<stop stop-color="#F9DDA1"/>
<stop offset="1" stop-color="#BE7E1D"/>
</radialGradient>
</defs>
</svg>
