<svg width="152" height="159" viewBox="0 0 152 159" fill="none" xmlns="http://www.w3.org/2000/svg">
<path d="M0 10C0 4.47715 4.47715 0 10 0H142C147.523 0 152 4.47715 152 10V109.747C152 113.297 150.118 116.581 147.055 118.375L81.0547 157.039C77.933 158.868 74.067 158.868 70.9453 157.039L4.94534 118.375C1.88217 116.581 0 113.297 0 109.747V10Z" fill="url(#paint0_linear_1_277)"/>
<g filter="url(#filter0_i_1_277)">
<path d="M23 26C23 23.2386 25.2386 21 28 21H124C126.761 21 129 23.2386 129 26V98.3811C129 100.112 128.105 101.72 126.633 102.631L78.6332 132.369C77.02 133.368 74.98 133.368 73.3668 132.369L25.3668 102.631C23.8953 101.72 23 100.112 23 98.3811V26Z" fill="url(#paint1_radial_1_277)"/>
<path d="M23 26C23 23.2386 25.2386 21 28 21H124C126.761 21 129 23.2386 129 26V98.3811C129 100.112 128.105 101.72 126.633 102.631L78.6332 132.369C77.02 133.368 74.98 133.368 73.3668 132.369L25.3668 102.631C23.8953 101.72 23 100.112 23 98.3811V26Z" fill="url(#paint2_radial_1_277)" fill-opacity="0.29"/>
<path d="M23 26C23 23.2386 25.2386 21 28 21H124C126.761 21 129 23.2386 129 26V98.3811C129 100.112 128.105 101.72 126.633 102.631L78.6332 132.369C77.02 133.368 74.98 133.368 73.3668 132.369L25.3668 102.631C23.8953 101.72 23 100.112 23 98.3811V26Z" fill="url(#paint3_linear_1_277)" fill-opacity="0.2"/>
</g>
<path d="M23.2602 106.032L25.3369 102.68L23.2602 106.032L71.2602 135.769C74.164 137.568 77.836 137.568 80.7398 135.769L128.74 106.032C131.388 104.391 133 101.497 133 98.3811V26C133 21.0294 128.971 17 124 17H28C23.0294 17 19 21.0294 19 26V98.3811C19 101.497 20.6115 104.391 23.2602 106.032Z" stroke="url(#paint4_linear_1_277)" stroke-width="8"/>
<path opacity="0.74" d="M28 12.5C20.5442 12.5 14.5 18.5442 14.5 26V98.3008C14.5 102.964 16.9063 107.296 20.8647 109.761L68.8647 139.646C73.2328 142.366 78.7672 142.366 83.1353 139.646L131.135 109.761C135.094 107.296 137.5 102.964 137.5 98.3007V26C137.5 18.5442 131.456 12.5 124 12.5H28Z" stroke="url(#paint5_linear_1_277)"/>
<mask id="mask0_1_277" style="mask-type:alpha" maskUnits="userSpaceOnUse" x="23" y="21" width="106" height="113">
<path d="M23 26C23 23.2386 25.2386 21 28 21H124C126.761 21 129 23.2386 129 26V98.3811C129 100.112 128.105 101.72 126.633 102.631L78.6332 132.369C77.02 133.368 74.98 133.368 73.3668 132.369L25.3668 102.631C23.8953 101.72 23 100.112 23 98.3811V26Z" fill="#D9D9D9"/>
</mask>
<g mask="url(#mask0_1_277)">
<g filter="url(#filter1_di_1_277)">
<path d="M95.4813 46.3256C96.7092 45.3799 98.2393 44.9134 99.7859 45.0133C101.333 45.1131 102.79 45.7724 103.886 46.8681C104.982 47.9638 105.642 49.421 105.742 50.9676C105.843 52.5142 105.377 54.0444 104.432 55.2727L90.6801 73.2557C86.8091 78.3173 81.8734 82.4666 76.222 85.4105C75.5232 82.8018 74.15 80.4232 72.2404 78.5136C70.3308 76.6039 67.9521 75.2307 65.3435 74.5319C68.2878 68.8819 72.4372 63.9474 77.4983 60.0773L95.4813 46.3256ZM61.3818 79.1352C58.6668 79.1352 56.0629 80.2137 54.1431 82.1335C52.2233 84.0533 51.1448 86.6572 51.1448 89.3722C51.1454 89.6621 51.072 89.9474 50.9317 90.2012C50.7914 90.4549 50.5888 90.6687 50.3429 90.8224C50.097 90.9761 49.816 91.0646 49.5264 91.0795C49.2369 91.0944 48.9483 91.0353 48.6879 90.9077C48.2292 90.6824 47.7136 90.5995 47.2075 90.6698C46.7013 90.74 46.2278 90.9602 45.8478 91.302C45.4679 91.6437 45.199 92.0914 45.0757 92.5873C44.9524 93.0833 44.9804 93.6047 45.1561 94.0846C46.2641 97.0898 48.3932 99.6098 51.1713 101.204C53.9493 102.798 57.1994 103.364 60.353 102.804C63.5065 102.244 66.3628 100.594 68.4223 98.1407C70.4817 95.6877 71.6132 92.5887 71.6188 89.3858V89.3722C71.6155 87.4703 71.0841 85.6067 70.084 83.989C69.0839 82.3713 67.6542 81.0631 65.9543 80.2101C64.5345 79.501 62.9688 79.133 61.3818 79.1352Z" fill="url(#paint6_radial_1_277)" shape-rendering="crispEdges"/>
<path d="M51.1448 89.3722C51.1448 86.6572 52.2233 84.0533 54.1431 82.1335C56.0629 80.2137 58.6668 79.1352 61.3818 79.1352C62.9688 79.133 64.5345 79.501 65.9543 80.2101L51.1448 89.3722ZM51.1448 89.3722C51.1454 89.6621 51.072 89.9474 50.9317 90.2012C50.7914 90.4549 50.5888 90.6687 50.3429 90.8224C50.097 90.9761 49.816 91.0646 49.5264 91.0795C49.2369 91.0944 48.9483 91.0353 48.6879 90.9077M51.1448 89.3722L48.6879 90.9077M49.4386 89.3756L49.4402 89.3765L49.4386 89.3756ZM49.4386 89.3756L49.4398 89.3774M49.4386 89.3756L49.4403 89.3722L49.7879 88.6627C49.6668 88.6034 49.5325 88.5759 49.3978 88.5828C49.263 88.5898 49.1323 88.6309 49.0179 88.7024C48.9035 88.7739 48.8092 88.8734 48.7439 88.9915C48.6794 89.1081 48.6454 89.239 48.6448 89.3722L49.4398 89.3774M49.4386 89.3756L49.4398 89.3774M49.4386 89.3756L48.6879 90.9077M49.4398 89.3774L48.6879 90.9077M92.6659 74.7744L92.666 74.7743L106.413 56.7974C106.414 56.7965 106.414 56.7957 106.415 56.7949C107.729 55.0858 108.377 52.9571 108.237 50.8056C108.097 48.6531 107.179 46.625 105.653 45.1C104.128 43.575 102.1 42.6574 99.9469 42.5185C97.7958 42.3796 95.6676 43.0278 93.9592 44.3423C93.9581 44.3431 93.957 44.344 93.9558 44.3449L75.9797 58.0914C75.9796 58.0914 75.9796 58.0914 75.9796 58.0914C70.6277 62.1839 66.24 67.4019 63.1265 73.3766C62.7761 74.0491 62.7498 74.8442 63.055 75.5384C63.3603 76.2325 63.9642 76.7506 64.6966 76.9468C66.8813 77.532 68.8734 78.6821 70.4726 80.2813C72.0719 81.8806 73.222 83.8727 73.8072 86.0573C74.0034 86.7897 74.5214 87.3935 75.2154 87.6988C75.9094 88.0041 76.7045 87.978 77.377 87.6277C83.3531 84.5147 88.5724 80.1269 92.6659 74.7744ZM67.0713 77.9734C65.3039 77.0908 63.3551 76.6326 61.3796 76.6352C58.0023 76.6357 54.7635 77.9776 52.3754 80.3657C50.247 82.4942 48.9496 85.2983 48.6922 88.2739C48.0958 88.1369 47.4762 88.1085 46.8637 88.1935C45.8631 88.3324 44.927 88.7677 44.1759 89.4433C43.4249 90.1189 42.8932 91.0039 42.6495 91.9842C42.4058 92.9646 42.4612 93.9955 42.8085 94.9441L42.8105 94.9494C44.1213 98.5048 46.6403 101.486 49.9271 103.372C53.2138 105.258 57.059 105.928 60.79 105.266C64.521 104.603 67.9004 102.65 70.3369 99.7481C72.7735 96.846 74.1122 93.1796 74.1188 89.3902V89.3858L74.1188 89.3722L74.1188 89.3678C74.1146 87.003 73.454 84.6858 72.2104 82.6743C70.9668 80.6629 69.1892 79.0362 67.0756 77.9756L67.0713 77.9734Z" stroke="white" stroke-opacity="0.8" stroke-width="5" stroke-linejoin="round" shape-rendering="crispEdges"/>
</g>
</g>
<defs>
<filter id="filter0_i_1_277" x="15" y="13" width="122" height="128.118" filterUnits="userSpaceOnUse" color-interpolation-filters="sRGB">
<feFlood flood-opacity="0" result="BackgroundImageFix"/>
<feBlend mode="normal" in="SourceGraphic" in2="BackgroundImageFix" result="shape"/>
<feColorMatrix in="SourceAlpha" type="matrix" values="0 0 0 0 0 0 0 0 0 0 0 0 0 0 0 0 0 0 127 0" result="hardAlpha"/>
<feOffset/>
<feGaussianBlur stdDeviation="22.5"/>
<feComposite in2="hardAlpha" operator="arithmetic" k2="-1" k3="1"/>
<feColorMatrix type="matrix" values="0 0 0 0 0.23559 0 0 0 0 0.238151 0 0 0 0 0.245833 0 0 0 1 0"/>
<feBlend mode="normal" in2="shape" result="effect1_innerShadow_1_277"/>
</filter>
<filter id="filter1_di_1_277" x="37.0001" y="40" width="76.7557" height="75.0147" filterUnits="userSpaceOnUse" color-interpolation-filters="sRGB">
<feFlood flood-opacity="0" result="BackgroundImageFix"/>
<feColorMatrix in="SourceAlpha" type="matrix" values="0 0 0 0 0 0 0 0 0 0 0 0 0 0 0 0 0 0 127 0" result="hardAlpha"/>
<feOffset dy="4"/>
<feGaussianBlur stdDeviation="1.5"/>
<feComposite in2="hardAlpha" operator="out"/>
<feColorMatrix type="matrix" values="0 0 0 0 0 0 0 0 0 0 0 0 0 0 0 0 0 0 0.25 0"/>
<feBlend mode="normal" in2="BackgroundImageFix" result="effect1_dropShadow_1_277"/>
<feBlend mode="normal" in="SourceGraphic" in2="effect1_dropShadow_1_277" result="shape"/>
<feColorMatrix in="SourceAlpha" type="matrix" values="0 0 0 0 0 0 0 0 0 0 0 0 0 0 0 0 0 0 127 0" result="hardAlpha"/>
<feOffset dx="1" dy="2"/>
<feGaussianBlur stdDeviation="7"/>
<feComposite in2="hardAlpha" operator="arithmetic" k2="-1" k3="1"/>
<feColorMatrix type="matrix" values="0 0 0 0 0.205833 0 0 0 0 0.209444 0 0 0 0 0.216667 0 0 0 1 0"/>
<feBlend mode="normal" in2="shape" result="effect2_innerShadow_1_277"/>
</filter>
<linearGradient id="paint0_linear_1_277" x1="9" y1="-1.49284e-06" x2="84.5" y2="154.5" gradientUnits="userSpaceOnUse">
<stop stop-color="#ECEFF7"/>
<stop offset="1" stop-color="#B5B5B6"/>
</linearGradient>
<radialGradient id="paint1_radial_1_277" cx="0" cy="0" r="1" gradientUnits="userSpaceOnUse" gradientTransform="translate(76 80) rotate(90) scale(91.9039 87.2308)">
<stop stop-color="#9B9DA2"/>
<stop offset="1" stop-color="#67676A"/>
</radialGradient>
<radialGradient id="paint2_radial_1_277" cx="0" cy="0" r="1" gradientUnits="userSpaceOnUse" gradientTransform="translate(51.2308 58.4423) rotate(-45.741) scale(59.4087 31.5326)">
<stop stop-color="white"/>
<stop offset="1" stop-color="white" stop-opacity="0"/>
</radialGradient>
<linearGradient id="paint3_linear_1_277" x1="76" y1="21" x2="76" y2="139" gradientUnits="userSpaceOnUse">
<stop stop-opacity="0"/>
<stop offset="1"/>
</linearGradient>
<linearGradient id="paint4_linear_1_277" x1="76" y1="21" x2="76" y2="139" gradientUnits="userSpaceOnUse">
<stop stop-color="#ACACAC"/>
<stop offset="1" stop-color="#DFE3EA"/>
</linearGradient>
<linearGradient id="paint5_linear_1_277" x1="42" y1="8.5" x2="94.5" y2="141.5" gradientUnits="userSpaceOnUse">
<stop stop-color="#FBFCFF"/>
<stop offset="1" stop-color="#D4D6D9"/>
</linearGradient>
<radialGradient id="paint6_radial_1_277" cx="0" cy="0" r="1" gradientUnits="userSpaceOnUse" gradientTransform="translate(84.2709 50.7947) rotate(140.138) scale(54.427 123.847)">
<stop stop-color="#ABABB8"/>
<stop offset="1" stop-color="#6E6D7A"/>
</radialGradient>
</defs>
</svg>
